<svg width="460" height="460" viewBox="0 0 460 460" fill="none" xmlns="http://www.w3.org/2000/svg">
<g filter="url(#filter0_b_111_3)">
<rect x="10" y="10" width="440" height="440" rx="220" fill="#25272B"/>
<g style="mix-blend-mode:lighten">
<path fill-rule="evenodd" clip-rule="evenodd" d="M129.86 169.034C127.166 168.265 124.526 167.382 121.935 166.389C110.906 185.054 104.546 206.796 104.546 230V286.367C106.166 287.769 107.769 289.182 109.318 290.643V271.045C109.318 269.54 110.54 268.318 112.046 268.318C113.551 268.318 114.773 269.54 114.773 271.045V296.082C139.689 322.225 153.636 356.687 153.636 393.636C153.636 401.136 152.966 408.62 151.776 416.033C175.842 426.194 202.275 431.818 230 431.818C257.72 431.818 284.153 426.194 308.224 416.033C307.035 408.625 306.364 401.142 306.364 393.636C306.364 361.34 317.049 330.974 336.364 306.374V286.498C336.364 284.993 337.586 283.771 339.091 283.771C340.596 283.771 341.818 284.993 341.818 286.498V299.84C346.029 295.094 350.567 290.578 355.455 286.367V230C355.455 206.796 349.1 185.06 338.066 166.394C335.48 167.387 332.835 168.271 330.146 169.04C341.676 185.24 348.178 206.933 348.178 230C348.178 278.12 319.635 317.273 284.546 317.273C270.331 317.273 256.635 310.585 245.567 298.738C243.276 310.749 238.706 323.774 230.006 323.774C221.3 323.774 216.724 310.76 214.438 298.749C203.36 310.591 189.669 317.273 175.46 317.273C140.371 317.273 111.827 278.12 111.827 230C111.827 206.938 118.329 185.234 129.86 169.034ZM277.046 135.947C277.046 137.453 275.824 138.674 274.318 138.674C272.813 138.674 271.591 137.453 271.591 135.947V111.663C258.566 107.071 244.575 104.545 230 104.545C188.071 104.545 150.909 125.245 128.109 156.936C133.198 158.72 138.456 160.16 143.922 160.951C173.818 164.993 200.824 173.398 221.524 184.983C224.48 186.636 227.311 188.354 230 190.138C251.507 175.896 281.9 165.571 316.127 160.945C321.571 160.154 326.813 158.72 331.891 156.942C318.14 137.818 299.164 122.709 277.046 113.731V135.947ZM247.613 280.138C247.613 280.634 247.591 281.3 247.558 282.053C247.552 282.289 247.548 282.523 247.544 282.757C247.538 283.147 247.532 283.537 247.515 283.94C257.513 298.411 270.609 306.358 284.551 306.358C313.624 306.358 337.275 272.103 337.275 229.994C337.275 207.303 330.446 186.227 318.446 171.625C318.323 171.643 318.199 171.661 318.074 171.68C317.928 171.702 317.78 171.725 317.633 171.745C314.087 172.225 310.613 172.809 307.16 173.409C285.626 177.173 266.087 183.243 250.078 191.185C243.887 194.262 238.22 197.605 233.164 201.194C232.22 201.865 231.113 202.203 230.006 202.203C228.898 202.203 227.791 201.865 226.847 201.194C206.611 186.833 176.622 176.382 142.416 171.756C142.275 171.734 142.133 171.714 141.992 171.694C141.85 171.673 141.708 171.653 141.566 171.631C129.566 186.238 122.731 207.314 122.731 230C122.731 272.109 146.382 306.363 175.455 306.363C189.391 306.363 202.487 298.422 212.491 283.956C212.469 283.552 212.462 283.167 212.455 282.78C212.451 282.588 212.447 282.395 212.442 282.2C212.404 281.387 212.382 280.667 212.382 280.138C212.382 264.843 217.651 258.32 230 258.32C242.344 258.32 247.613 264.843 247.613 280.138ZM230 269.229C225.533 269.229 223.291 269.229 223.291 280.138C223.291 281.468 223.425 284.164 223.465 284.975C223.472 285.119 223.476 285.203 223.476 285.211C224.267 296.6 227.475 307.907 230 311.878C232.531 307.896 235.733 296.573 236.524 285.173C236.524 285.168 236.527 285.11 236.532 285.008C236.566 284.302 236.704 281.506 236.704 280.138C236.704 269.229 234.462 269.229 230 269.229ZM141.473 411.314C142.275 405.451 142.727 399.549 142.727 393.636C142.727 358.394 128.998 325.607 104.54 301.203V387.909C115.924 396.974 128.289 404.851 141.473 411.314ZM339.898 319.967C325.28 341.354 317.273 366.773 317.273 393.636C317.273 399.554 317.725 405.456 318.522 411.32C331.706 404.851 344.071 396.974 355.455 387.914V301.209C350.447 306.205 345.898 311.556 341.818 317.207V317.403C341.818 318.625 341 319.623 339.898 319.967ZM377.273 230V367.787C411.064 331.689 431.818 283.236 431.818 230C431.818 118.716 341.284 28.1816 230 28.1816C118.716 28.1816 28.1819 118.716 28.1819 230C28.1819 283.231 48.931 331.683 82.7219 367.782L82.7273 230C82.7273 203.153 89.9873 177.98 102.587 156.282C89.8564 147.603 79.5583 135.947 73.2146 122.311C71.9437 119.578 73.1273 116.333 75.8601 115.062C78.5819 113.791 81.8382 114.98 83.1092 117.707C88.5692 129.44 97.4437 139.476 108.402 147.031C134.949 108.243 179.546 82.7271 230 82.7271C280.455 82.7271 325.051 108.243 351.604 147.025C362.562 139.476 371.431 129.434 376.891 117.702C378.156 114.974 381.386 113.78 384.135 115.056C386.867 116.327 388.046 119.573 386.775 122.305C380.431 135.942 370.133 147.603 357.413 156.282C370.018 177.98 377.273 203.153 377.273 230ZM182.955 119.589C181.449 119.589 180.227 120.811 180.227 122.316V153.221C180.227 154.727 181.449 155.949 182.955 155.949C184.46 155.949 185.682 154.727 185.682 153.221V122.316C185.682 120.805 184.46 119.589 182.955 119.589ZM260 357.314C260 358.82 258.778 360.042 257.273 360.042C255.767 360.042 254.546 358.82 254.546 357.314V326.403C254.546 324.898 255.767 323.676 257.273 323.676C258.778 323.676 260 324.898 260 326.403V357.314ZM171.364 364.541C172.869 364.541 174.091 363.32 174.091 361.814V330.909C174.091 329.403 172.869 328.181 171.364 328.181C169.858 328.181 168.636 329.403 168.636 330.909V361.814C168.636 363.32 169.858 364.541 171.364 364.541ZM126.364 394.541C127.869 394.541 129.091 393.32 129.091 391.814V360.909C129.091 359.403 127.869 358.181 126.364 358.181C124.858 358.181 123.636 359.403 123.636 360.909V391.814C123.636 393.32 124.858 394.541 126.364 394.541ZM221.818 416.387C221.818 417.893 220.596 419.114 219.091 419.114C217.585 419.114 216.363 417.893 216.363 416.387V385.476C216.363 383.971 217.585 382.749 219.091 382.749C220.596 382.749 221.818 383.971 221.818 385.476V416.387ZM277.727 399.996C279.233 399.996 280.454 398.774 280.454 397.269V366.363C280.454 364.858 279.233 363.636 277.727 363.636C276.222 363.636 275 364.858 275 366.363V397.269C275 398.774 276.222 399.996 277.727 399.996ZM236.136 136.858C236.136 135.352 237.358 134.131 238.863 134.131C240.369 134.131 241.591 135.347 241.591 136.858V167.763C241.591 169.269 240.369 170.491 238.863 170.491C237.358 170.491 236.136 169.269 236.136 167.763V136.858ZM330.228 352.749C328.722 352.749 327.5 353.971 327.5 355.476V386.387C327.5 387.893 328.722 389.114 330.228 389.114C331.733 389.114 332.955 387.893 332.955 386.387V355.476C332.955 353.971 331.733 352.749 330.228 352.749ZM281.294 230C281.294 237.242 275.424 243.112 268.182 243.112C260.94 243.112 255.069 237.242 255.069 230C255.069 222.758 260.94 216.887 268.182 216.887C275.424 216.887 281.294 222.758 281.294 230ZM297.129 230C297.129 214.04 284.142 201.053 268.182 201.053C252.222 201.053 239.235 214.034 239.235 230C239.235 245.96 252.222 258.947 268.182 258.947C284.142 258.947 297.129 245.96 297.129 230ZM250.144 230C250.144 220.056 258.233 211.962 268.182 211.962C278.131 211.962 286.22 220.051 286.22 230C286.22 239.949 278.125 248.038 268.182 248.038C258.238 248.038 250.144 239.943 250.144 230ZM204.931 230C204.931 237.242 199.06 243.112 191.818 243.112C184.576 243.112 178.705 237.242 178.705 230C178.705 222.758 184.576 216.887 191.818 216.887C199.06 216.887 204.931 222.758 204.931 230ZM191.818 201.053C175.858 201.053 162.871 214.034 162.871 230C162.871 245.96 175.853 258.947 191.818 258.947C207.784 258.947 220.766 245.96 220.766 230C220.766 214.04 207.778 201.053 191.818 201.053ZM191.818 248.038C181.875 248.038 173.78 239.949 173.78 230C173.78 220.051 181.869 211.962 191.818 211.962C201.767 211.962 209.857 220.051 209.857 230C209.857 239.949 201.762 248.038 191.818 248.038Z" fill="url(#paint0_linear_111_3)"/>
</g>
</g>
<defs>
<filter id="filter0_b_111_3" x="7.09091" y="7.09091" width="445.818" height="445.818" filterUnits="userSpaceOnUse" color-interpolation-filters="sRGB">
<feFlood flood-opacity="0" result="BackgroundImageFix"/>
<feGaussianBlur in="BackgroundImage" stdDeviation="1.45455"/>
<feComposite in2="SourceAlpha" operator="in" result="effect1_backgroundBlur_111_3"/>
<feBlend mode="normal" in="SourceGraphic" in2="effect1_backgroundBlur_111_3" result="shape"/>
</filter>
<linearGradient id="paint0_linear_111_3" x1="85.8456" y1="366.61" x2="376.334" y2="-19.7699" gradientUnits="userSpaceOnUse">
<stop stop-color="#FF55EC"/>
<stop offset="1" stop-color="#0049E9"/>
</linearGradient>
</defs>
</svg>
